<svg xmlns="http://www.w3.org/2000/svg" xmlns:xlink="http://www.w3.org/1999/xlink" width="121" height="20" viewBox="0 0 121 20">
  <defs>
    <polygon id="payconiq_logo-a" points="0 17.66 121.386 17.66 121.386 0 0 0"/>
  </defs>
  <g fill="none" fill-rule="evenodd">
    <polygon fill="#FF4785" points="106.353 4.679 109.397 4.679 109.397 15.212 106.353 15.212"/>
    <path fill="#FF4785" d="M107.8697 3.54842915C106.889781 3.54753846 106.096178 2.75247773 106.096988 1.77263968 106.097879.792801619 106.892939-.000882591093 107.872777.00000809716599 108.852696.000817813765 109.6463.795959514 109.64549 1.7757166 109.644599 2.75563563 108.849538 3.54931984 107.8697 3.54842915M87.887336 15.247247C84.958834 15.247247 82.5764049 12.8648178 82.5764049 9.93631579 82.5764049 7.95412955 83.6680648 6.15008097 85.4260405 5.2294332 86.1690364 4.84060729 87.090332 5.12611336 87.4803725 5.87145749 87.870332 6.61558704 87.5830445 7.53582996 86.8383482 7.9257085 86.0867692 8.31906883 85.6201296 9.09 85.6201296 9.93631579 85.6201296 11.1863563 86.6373765 12.2035223 87.887336 12.2035223 88.7825587 12.2035223 89.596 11.6751012 89.9604534 10.8576113 90.3032874 10.0896761 91.2035304 9.74449393 91.9698462 10.0868421 92.7378623 10.4290283 93.0830445 11.3287854 92.7406964 12.0962348 91.887498 14.0104049 89.9825587 15.247247 87.887336 15.247247"/>
    <mask id="payconiq_logo-b" fill="#fff">
      <use xlink:href="#payconiq_logo-a"/>
    </mask>
    <polygon fill="#FF4785" points="118.342 17.626 121.386 17.626 121.386 4.699 118.342 4.699" mask="url(#payconiq_logo-b)"/>
    <polygon fill="#FF4785" points="37.696 17.626 40.74 17.626 40.74 4.699 37.696 4.699" mask="url(#payconiq_logo-b)"/>
    <polygon fill="#FF4785" points="94.517 15.212 97.561 15.212 97.561 4.699 94.517 4.699" mask="url(#payconiq_logo-b)"/>
    <polygon fill="#FF4785" points="56.856 15.212 59.9 15.212 59.9 4.699 56.856 4.699" mask="url(#payconiq_logo-b)"/>
    <path fill="#FF4785" d="M77.2615466 15.247247C74.3330445 15.247247 71.9506154 12.8648178 71.9506154 9.93631579 71.9506154 7.00781377 74.3330445 4.62538462 77.2615466 4.62538462 79.0519109 4.62538462 80.7100486 5.52004049 81.6970931 7.01809717L79.1552308 8.69267206C78.7328826 8.05178138 78.0250283 7.66919028 77.2615466 7.66919028 76.011587 7.66919028 74.9943401 8.68643725 74.9943401 9.93631579 74.9943401 11.1863563 76.011587 12.2035223 77.2615466 12.2035223 78.0187935 12.2035223 78.723247 11.827247 79.146081 11.1959919L81.6744211 12.8915385C80.6850283 14.3668421 79.0353927 15.247247 77.2615466 15.247247M5.16165992 7.42676113C5.67550607 7.09315789 6.25315789 6.9337247 6.82441296 6.9337247 7.83032389 6.9337247 8.81688259 7.42676113 9.4034413 8.33267206 9.84894737 9.01866397 10.0004453 9.83842105 9.82919028 10.6393927 9.68004049 11.3395547 9.30052632 11.9513765 8.74894737 12.3925911L13.5780162 8.92149798C13.429919 7.99283401 13.0897571 7.09680162 12.5626316 6.28433198 11.5701619 4.75275304 10.0405263 3.69931174 8.2559919 3.31817814 6.47 2.93793522 4.64384615 3.27356275 3.11331984 4.26757085L5.16165992 7.42578947 5.16165992 7.42676113zM23.1326235 12.9996518C22.3316518 12.8283158 21.6450931 12.3551174 21.1991012 11.6680729 20.2799109 10.2492874 20.6857409 8.34645344 22.1050121 7.42580567L17.028332 11.0751984C17.1727854 11.9899352 17.5046883 12.8895304 18.0399109 13.7154413 19.3467935 15.7320405 21.5436356 16.8300162 23.7835547 16.8300162 25.056753 16.8300162 26.3437976 16.4746316 27.4892227 15.7330931L25.4408826 12.5728502C24.7537571 13.0203806 23.9360243 13.1699352 23.1326235 12.9996518" mask="url(#payconiq_logo-b)"/>
    <path fill="#C40041" d="M29.5054251,6.28430769 C28.7614575,5.13556275 27.7150607,4.25588664 26.4852632,3.72706073 C26.0753846,3.55070445 25.6451012,3.41345749 25.1987854,3.31815385 C23.414251,2.93904453 21.5881781,3.27459109 19.9823482,4.31807287 L19.585749,4.60317409 L13.5779757,8.92147368 L8.74890688,12.3926478 C8.66882591,12.4566964 8.58526316,12.5173441 8.49805668,12.5739433 C8.33975709,12.6762915 8.17481781,12.7596923 8.0065587,12.8295709 C6.78008097,13.3408259 5.34234818,12.997749 4.48032389,11.9675466 C4.40105263,11.8728097 4.32510121,11.7742672 4.2562753,11.6680324 L1.09708502,13.7154008 C2.08963563,15.2469798 3.61919028,16.3003401 5.4037247,16.6814737 C5.52267206,16.7068988 5.64186235,16.7289231 5.76105263,16.7479514 C5.87740891,16.766413 5.99392713,16.7817976 6.11036437,16.7941862 C6.11271255,16.7945101 6.11506073,16.794915 6.11740891,16.7951579 C6.35554656,16.8203401 6.59376518,16.8329717 6.83133603,16.8329717 C8.14307692,16.8329717 9.43991903,16.4483563 10.6178138,15.683336 C10.6209717,15.6813117 10.6239676,15.6790445 10.6272065,15.6769393 L11.0150607,15.3981538 L17.0283401,11.0752389 L22.1049393,7.42584615 C22.1818623,7.37588664 22.2608907,7.33110931 22.3408907,7.28868016 C22.3641296,7.27637247 22.3876113,7.26487449 22.4110931,7.25321457 C22.4739271,7.22187854 22.5374899,7.19297166 22.6018623,7.16617004 C22.6223482,7.15766802 22.6425101,7.14859919 22.6631579,7.14050202 C22.7480162,7.10746559 22.8339271,7.07766802 22.9210526,7.05232389 C22.9289879,7.05005668 22.937166,7.04843725 22.9451012,7.04617004 C23.0253441,7.02357895 23.1063968,7.00487449 23.1880972,6.98908502 C23.2079352,6.98519838 23.2277733,6.98163563 23.2476923,6.97815385 C23.3281781,6.96422672 23.4090688,6.95321457 23.4905263,6.94576518 C23.5002429,6.94487449 23.5098785,6.943417 23.5196761,6.94260729 C23.6015385,6.93596761 23.6837247,6.93175709 23.7662348,6.93175709 C23.7750607,6.93175709 23.7839676,6.9331336 23.7927935,6.93321457 C23.8521457,6.9337004 23.9116599,6.93863968 23.9710931,6.94260729 C24.0148178,6.94552227 24.0583806,6.94608907 24.1021862,6.95078543 C24.20583,6.96212146 24.3094737,6.97815385 24.4127126,7.00009717 C24.5128745,7.02147368 24.611336,7.04762753 24.7076113,7.07831579 C24.7985425,7.10722267 24.8872065,7.14090688 24.974251,7.17782996 C25.0021053,7.18965182 25.0288259,7.20357895 25.0562753,7.21612955 C25.1147368,7.24301215 25.1728745,7.27054251 25.2293117,7.30090688 C25.2604858,7.31766802 25.2905263,7.33588664 25.3209717,7.3537004 C25.3721457,7.38365992 25.422753,7.41442915 25.4720648,7.44722267 C25.5023482,7.46738462 25.5319838,7.48843725 25.5615385,7.50973279 C25.6094737,7.54422672 25.6562753,7.57993522 25.7021053,7.61718219 C25.7296356,7.63953036 25.757004,7.66204049 25.7838057,7.68536032 C25.8306883,7.72625101 25.8758704,7.76908502 25.9203239,7.81289069 C25.9430769,7.83531984 25.9663158,7.85726316 25.9884211,7.88050202 C26.0384615,7.93297166 26.0860729,7.98811336 26.1325506,8.04438866 C26.1465587,8.06131174 26.1614575,8.07734413 26.1751417,8.09451012 C26.2352227,8.17070445 26.2927935,8.24932794 26.3462348,8.33167611 L29.5055061,6.28455061 L29.5054251,6.28430769 Z" mask="url(#payconiq_logo-b)"/>
    <path fill="#FF4785" d="M43.0539838 7.66920648C41.8040243 7.66920648 40.7867773 8.68645344 40.7867773 9.93633198 40.7867773 11.1863725 41.8040243 12.2035385 43.0539838 12.2035385 44.3039433 12.2035385 45.3211903 11.1863725 45.3211903 9.93633198 45.3211903 8.68645344 44.3039433 7.66920648 43.0539838 7.66920648M43.0539838 15.2472632C40.1254818 15.2472632 37.7430526 12.864834 37.7430526 9.93633198 37.7430526 7.00782996 40.1254818 4.62540081 43.0539838 4.62540081 45.9824858 4.62540081 48.364834 7.00782996 48.364834 9.93633198 48.364834 12.864834 45.9824858 15.2472632 43.0539838 15.2472632M54.6056113 7.66920648C53.3556518 7.66920648 52.3384049 8.68645344 52.3384049 9.93633198 52.3384049 11.1863725 53.3556518 12.2035385 54.6056113 12.2035385 55.8555709 12.2035385 56.8728178 11.1863725 56.8728178 9.93633198 56.8728178 8.68645344 55.8555709 7.66920648 54.6056113 7.66920648M54.6056113 15.2472632C51.6771093 15.2472632 49.2946802 12.864834 49.2946802 9.93633198 49.2946802 7.00782996 51.6771093 4.62540081 54.6056113 4.62540081 57.5341134 4.62540081 59.9164615 7.00782996 59.9164615 9.93633198 59.9164615 12.864834 57.5341134 15.2472632 54.6056113 15.2472632M116.051709 7.66920648C114.801749 7.66920648 113.784583 8.68645344 113.784583 9.93633198 113.784583 11.1863725 114.801749 12.2035385 116.051709 12.2035385 117.301749 12.2035385 118.318915 11.1863725 118.318915 9.93633198 118.318915 8.68645344 117.301749 7.66920648 116.051709 7.66920648M116.051709 15.2472632C113.123206 15.2472632 110.740777 12.864834 110.740777 9.93633198 110.740777 7.00782996 113.123206 4.62540081 116.051709 4.62540081 118.980211 4.62540081 121.36264 7.00782996 121.36264 9.93633198 121.36264 12.864834 118.980211 15.2472632 116.051709 15.2472632M89.2893927 14.9804534C88.6842915 14.9804534 88.1127126 14.6172146 87.8748178 14.0211012 87.5637247 13.2406964 87.9446964 12.3551093 88.725749 12.0440162 89.5936842 11.6983482 90.1545749 10.8713036 90.1545749 9.93632389 90.1545749 8.68644534 89.1373279 7.66919838 87.8873684 7.66919838 86.945668 7.66919838 86.0919028 8.26126316 85.7631579 9.14280162 85.4680162 9.93008907 84.5915789 10.3286316 83.8048583 10.0362429 83.0174899 9.74223482 82.6173279 8.8657166 82.911336 8.07786235 83.6821862 6.01276113 85.6820243 4.62539271 87.8873684 4.62539271 90.8158704 4.62539271 93.1982186 7.00782186 93.1982186 9.93632389 93.1982186 12.124583 91.8846964 14.0619919 89.8519838 14.8720324 89.6675304 14.9452308 89.4766802 14.9804534 89.2893927 14.9804534M104.385466 15.1427935L101.341741 15.1427935 101.341741 9.74846154C101.341741 9.07979757 101.152672 8.56659919 100.779231 8.22376518 100.451619 7.92287449 99.9907287 7.75712551 99.4815789 7.75712551 99.2834413 7.75712551 97.5452227 7.81105263 97.5452227 9.68255061L94.5015789 9.68255061C94.5015789 6.45493927 97.0673279 4.71340081 99.4815789 4.71340081 101.918421 4.71340081 104.385466 6.44311741 104.385466 9.74846154L104.385466 15.1427935z" mask="url(#payconiq_logo-b)"/>
    <polygon fill="#FF4785" points="66.844 17.641 61.005 4.723 64.299 4.723 68.261 14.042" mask="url(#payconiq_logo-b)"/>
    <polygon fill="#FF4785" points="66.836 17.659 63.747 17.659 68.856 4.723 71.945 4.723" mask="url(#payconiq_logo-b)"/>
    <path fill="#D62560" d="M5.16165992 7.42581377L3.11331984 4.26759514C-.0474089069 6.31698785-.951781377 10.5552065 1.09712551 13.7154494L4.25631579 11.668081C4.08384615 11.4020081 3.95801619 11.1189312 3.87672065 10.8285668 3.7954251 10.5382024 3.75874494 10.2405506 3.76449393 9.94508502 3.78368421 8.96030769 4.27493927 8.00119838 5.16165992 7.42581377M26.3462267 8.33263158C26.7917328 9.01967611 26.9432308 9.83846154 26.7719757 10.6393522 26.6011255 11.4413765 26.1284939 12.1273684 25.4408826 12.5728745L27.4892227 15.7331174C29.0203158 14.740081 30.0736761 13.2104453 30.4543239 11.4254251 30.508251 11.1727935 30.5461457 10.9192713 30.5714899 10.6659109 30.5891417 10.4887449 30.6005587 10.311498 30.6043644 10.1348178 30.6047692 10.1179757 30.6060648 10.1011336 30.6063077 10.0843725 30.6257409 8.74615385 30.2501943 7.43238866 29.5055789 6.28453441L26.3462267 8.33165992" mask="url(#payconiq_logo-b)"/>
    <path fill="#FF4785" d="M5.16165992 7.42676113C5.67550607 7.09315789 6.25315789 6.9337247 6.82441296 6.9337247 7.83032389 6.9337247 8.81688259 7.42676113 9.4034413 8.33267206 9.84894737 9.01866397 10.0004453 9.83842105 9.82919028 10.6393927 9.68004049 11.3395547 9.30052632 11.9513765 8.74894737 12.3925911L13.5780162 8.92149798C13.429919 7.99283401 13.0897571 7.09680162 12.5626316 6.28433198 11.5701619 4.75275304 10.0405263 3.69931174 8.2559919 3.31817814 6.47 2.93793522 4.64384615 3.27356275 3.11331984 4.26757085L5.16165992 7.42578947 5.16165992 7.42676113zM23.1326235 12.9996518C22.3316518 12.8283158 21.6450931 12.3551174 21.1991012 11.6680729 20.2799109 10.2492874 20.6857409 8.34645344 22.1050121 7.42580567L17.028332 11.0751984C17.1727854 11.9899352 17.5046883 12.8895304 18.0399109 13.7154413 19.3467935 15.7320405 21.5436356 16.8300162 23.7835547 16.8300162 25.056753 16.8300162 26.3437976 16.4746316 27.4892227 15.7330931L25.4408826 12.5728502C24.7537571 13.0203806 23.9360243 13.1699352 23.1326235 12.9996518" mask="url(#payconiq_logo-b)"/>
    <path fill="#C40041" d="M29.5054251,6.28430769 C28.7614575,5.13556275 27.7150607,4.25588664 26.4852632,3.72706073 C26.0753846,3.55070445 25.6451012,3.41345749 25.1987854,3.31815385 C23.414251,2.93904453 21.5881781,3.27459109 19.9823482,4.31807287 L19.585749,4.60317409 L13.5779757,8.92147368 L8.74890688,12.3926478 C8.66882591,12.4566964 8.58526316,12.5173441 8.49805668,12.5739433 C8.33975709,12.6762915 8.17481781,12.7596923 8.0065587,12.8295709 C6.78008097,13.3408259 5.34234818,12.997749 4.48032389,11.9675466 C4.40105263,11.8728097 4.32510121,11.7742672 4.2562753,11.6680324 L1.09708502,13.7154008 C2.08963563,15.2469798 3.61919028,16.3003401 5.4037247,16.6814737 C5.52267206,16.7068988 5.64186235,16.7289231 5.76105263,16.7479514 C5.87740891,16.766413 5.99392713,16.7817976 6.11036437,16.7941862 C6.11271255,16.7945101 6.11506073,16.794915 6.11740891,16.7951579 C6.35554656,16.8203401 6.59376518,16.8329717 6.83133603,16.8329717 C8.14307692,16.8329717 9.43991903,16.4483563 10.6178138,15.683336 C10.6209717,15.6813117 10.6239676,15.6790445 10.6272065,15.6769393 L11.0150607,15.3981538 L17.0283401,11.0752389 L22.1049393,7.42584615 C22.1818623,7.37588664 22.2608907,7.33110931 22.3408907,7.28868016 C22.3641296,7.27637247 22.3876113,7.26487449 22.4110931,7.25321457 C22.4739271,7.22187854 22.5374899,7.19297166 22.6018623,7.16617004 C22.6223482,7.15766802 22.6425101,7.14859919 22.6631579,7.14050202 C22.7480162,7.10746559 22.8339271,7.07766802 22.9210526,7.05232389 C22.9289879,7.05005668 22.937166,7.04843725 22.9451012,7.04617004 C23.0253441,7.02357895 23.1063968,7.00487449 23.1880972,6.98908502 C23.2079352,6.98519838 23.2277733,6.98163563 23.2476923,6.97815385 C23.3281781,6.96422672 23.4090688,6.95321457 23.4905263,6.94576518 C23.5002429,6.94487449 23.5098785,6.943417 23.5196761,6.94260729 C23.6015385,6.93596761 23.6837247,6.93175709 23.7662348,6.93175709 C23.7750607,6.93175709 23.7839676,6.9331336 23.7927935,6.93321457 C23.8521457,6.9337004 23.9116599,6.93863968 23.9710931,6.94260729 C24.0148178,6.94552227 24.0583806,6.94608907 24.1021862,6.95078543 C24.20583,6.96212146 24.3094737,6.97815385 24.4127126,7.00009717 C24.5128745,7.02147368 24.611336,7.04762753 24.7076113,7.07831579 C24.7985425,7.10722267 24.8872065,7.14090688 24.974251,7.17782996 C25.0021053,7.18965182 25.0288259,7.20357895 25.0562753,7.21612955 C25.1147368,7.24301215 25.1728745,7.27054251 25.2293117,7.30090688 C25.2604858,7.31766802 25.2905263,7.33588664 25.3209717,7.3537004 C25.3721457,7.38365992 25.422753,7.41442915 25.4720648,7.44722267 C25.5023482,7.46738462 25.5319838,7.48843725 25.5615385,7.50973279 C25.6094737,7.54422672 25.6562753,7.57993522 25.7021053,7.61718219 C25.7296356,7.63953036 25.757004,7.66204049 25.7838057,7.68536032 C25.8306883,7.72625101 25.8758704,7.76908502 25.9203239,7.81289069 C25.9430769,7.83531984 25.9663158,7.85726316 25.9884211,7.88050202 C26.0384615,7.93297166 26.0860729,7.98811336 26.1325506,8.04438866 C26.1465587,8.06131174 26.1614575,8.07734413 26.1751417,8.09451012 C26.2352227,8.17070445 26.2927935,8.24932794 26.3462348,8.33167611 L29.5055061,6.28455061 L29.5054251,6.28430769 Z" mask="url(#payconiq_logo-b)"/>
    <path fill="#D62560" d="M5.16165992 7.42581377L3.11331984 4.26759514C-.0474089069 6.31698785-.951781377 10.5552065 1.09712551 13.7154494L4.25631579 11.668081C4.08384615 11.4020081 3.95801619 11.1189312 3.87672065 10.8285668 3.7954251 10.5382024 3.75874494 10.2405506 3.76449393 9.94508502 3.78368421 8.96030769 4.27493927 8.00119838 5.16165992 7.42581377M26.3462267 8.33263158C26.7917328 9.01967611 26.9432308 9.83846154 26.7719757 10.6393522 26.6011255 11.4413765 26.1284939 12.1273684 25.4408826 12.5728745L27.4892227 15.7331174C29.0203158 14.740081 30.0736761 13.2104453 30.4543239 11.4254251 30.508251 11.1727935 30.5461457 10.9192713 30.5714899 10.6659109 30.5891417 10.4887449 30.6005587 10.311498 30.6043644 10.1348178 30.6047692 10.1179757 30.6060648 10.1011336 30.6063077 10.0843725 30.6257409 8.74615385 30.2501943 7.43238866 29.5055789 6.28453441L26.3462267 8.33165992" mask="url(#payconiq_logo-b)"/>
  </g>
</svg>
