<svg xmlns="http://www.w3.org/2000/svg" xmlns:svg="http://www.w3.org/2000/svg" id="svg5327" width="240" height="20" version="1.1"><metadata id="metadata5332"/><g id="layer1" transform="translate(-3200,-992.36218)"><path id="path6002-6-5-5" d="m 3215.5,1001.3622 -5.5,-5.5 -5.5,5.5 4.5,0 0,7 2,0 0,-7 z" style="color:#000;fill:#000;fill-opacity:1;fill-rule:nonzero;stroke:none;stroke-width:1;marker:none;visibility:visible;display:inline;overflow:visible;enable-background:accumulate"/><path style="font-size:medium;font-style:normal;font-variant:normal;font-weight:400;font-stretch:normal;text-indent:0;text-align:start;text-decoration:none;line-height:normal;letter-spacing:normal;word-spacing:normal;text-transform:none;direction:ltr;block-progression:tb;writing-mode:lr-tb;text-anchor:start;baseline-shift:baseline;color:#000;fill:#000;fill-opacity:1;stroke:none;stroke-width:1.99999988;marker:none;visibility:visible;display:inline;overflow:visible;enable-background:accumulate;font-family:Sans;-inkscape-font-specification:Sans" id="rect4998" d="m 3289,996.36218 c -1.7222,0 -3.0854,0.60866 -3.9062,1.59375 -0.821,0.98509 -1.0938,2.23957 -1.0938,3.40627 l 0,6 2,0 0,-6 c 0,-0.8333 0.2272,-1.6101 0.6562,-2.12502 0.4291,-0.51492 1.066,-0.875 2.3438,-0.875 1.2778,0 1.9146,0.36008 2.3438,0.875 0.429,0.51492 0.6562,1.29172 0.6562,2.12502 l 0,2 -4.5,0 5.5,5.5 5.5,-5.5 -4.5,0 0,-2 c 0,-1.1667 -0.2728,-2.42118 -1.0938,-3.40627 -0.8209,-0.98509 -2.184,-1.59375 -3.9062,-1.59375 z"/><path id="path4705" d="m 3266.5,996.36218 3.0312,3.03125 -3.5312,3.53127 0,5.4375 2,0 0,-4.5938 2.9375,-2.9687 3.0625,3.0625 0,-7.50002 z" style="color:#000;fill:#000;fill-opacity:1;fill-rule:nonzero;stroke:none;stroke-width:1;marker:none;visibility:visible;display:inline;overflow:visible;enable-background:accumulate"/><path id="path4878" d="m 3251,995.86218 0,4.50002 -5,0 -1,1 0,6 2,0 0,-5 4,0 0,4.5 5.5,-5.5 z" style="font-size:medium;font-style:normal;font-variant:normal;font-weight:400;font-stretch:normal;text-indent:0;text-align:start;text-decoration:none;line-height:normal;letter-spacing:normal;word-spacing:normal;text-transform:none;direction:ltr;block-progression:tb;writing-mode:lr-tb;text-anchor:start;baseline-shift:baseline;color:#000;fill:#000;fill-opacity:1;stroke:none;stroke-width:4;marker:none;visibility:visible;display:inline;overflow:visible;enable-background:accumulate;font-family:Sans;-inkscape-font-specification:Sans"/><path style="color:#000;fill:#000;fill-opacity:1;fill-rule:nonzero;stroke:none;stroke-width:1;marker:none;visibility:visible;display:inline;overflow:visible;enable-background:accumulate" id="path4886" d="m 3226.4375,996.36218 -1.4375,1 0,8.00002 2,0 0,-5.5938 4.5625,4.5313 -3.0625,3.0625 7.5,0 0,-7.5 -3.0312,3.0312 -6.5313,-6.53122 z"/><path id="path4941" d="m 3346,996.36218 0,7.50002 3.0625,-3.0625 2.9375,2.9687 0,4.5938 2,0 0,-5.4375 -3.5312,-3.53127 3.0312,-3.03125 z" style="color:#000;fill:#000;fill-opacity:1;fill-rule:nonzero;stroke:none;stroke-width:1;marker:none;visibility:visible;display:inline;overflow:visible;enable-background:accumulate"/><path style="font-size:medium;font-style:normal;font-variant:normal;font-weight:400;font-stretch:normal;text-indent:0;text-align:start;text-decoration:none;line-height:normal;letter-spacing:normal;word-spacing:normal;text-transform:none;direction:ltr;block-progression:tb;writing-mode:lr-tb;text-anchor:start;baseline-shift:baseline;color:#000;fill:#000;fill-opacity:1;stroke:none;stroke-width:4;marker:none;visibility:visible;display:inline;overflow:visible;enable-background:accumulate;font-family:Sans;-inkscape-font-specification:Sans" id="path4945" d="m 3329,995.86218 0,4.50002 5,0 1,1 0,6 -2,0 0,-5 -4,0 0,4.5 -5.5,-5.5 z"/><path style="color:#000;fill:#000;fill-opacity:1;fill-rule:nonzero;stroke:none;stroke-width:1;marker:none;visibility:visible;display:inline;overflow:visible;enable-background:accumulate" id="path4947" d="m 3313.5625,996.36218 -6.5313,6.53122 -3.0312,-3.0312 0,7.5 7.5,0 -3.0625,-3.0625 4.5625,-4.5313 0,5.5938 2,0 0,-8.00002 -1.4375,-1 z"/><path style="font-size:medium;font-style:normal;font-variant:normal;font-weight:400;font-stretch:normal;text-indent:0;text-align:start;text-decoration:none;line-height:normal;letter-spacing:normal;word-spacing:normal;text-transform:none;direction:ltr;block-progression:tb;writing-mode:lr-tb;text-anchor:start;baseline-shift:baseline;color:#000;fill:#000;fill-opacity:1;stroke:none;stroke-width:1.60001969;marker:none;visibility:visible;display:inline;overflow:visible;enable-background:accumulate;font-family:Sans;-inkscape-font-specification:Sans" id="path5026" d="m 3390,995.39343 c -1.5376,0 -3.0827,0.55137 -4.25,1.71875 -2.3349,2.33472 -2.3349,6.16522 0,8.50002 l 1.4375,-1.4375 c -1.5705,-1.5704 -1.5705,-4.0546 0,-5.62502 1.5705,-1.57045 4.0546,-1.57045 5.625,0 1.5705,1.57042 1.5705,4.05462 0,5.62502 -0.7503,0.7504 -1.7513,1.1875 -2.8125,1.1875 l -1,0 0,4 2,0 0,-2.0625 c 1.2269,-0.2054 2.3619,-0.7994 3.25,-1.6875 2.3348,-2.3348 2.3348,-6.1653 0,-8.50002 -1.1674,-1.16738 -2.7124,-1.71875 -4.25,-1.71875 z"/><g style="fill:#000;display:inline" id="a-18" transform="translate(3360.5,-23.000003)"><rect id="rect6083" width="18" height="18" x="0" y="0" transform="translate(0,1016.3622)" style="color:#000;fill:#000;fill-opacity:0;fill-rule:nonzero;stroke:none;stroke-width:2;marker:none;visibility:visible;display:inline;overflow:visible;enable-background:accumulate"/><text id="text6593" x="9.496" y="1031.362" style="font-size:16.74114418px;font-style:normal;font-variant:normal;font-weight:700;font-stretch:normal;text-indent:0;text-align:center;text-decoration:none;line-height:125%;letter-spacing:normal;word-spacing:normal;text-transform:none;direction:ltr;block-progression:tb;writing-mode:lr-tb;text-anchor:middle;color:#000;fill:#000;fill-opacity:1;fill-rule:nonzero;stroke:none;stroke-width:2;marker:none;visibility:visible;display:inline;overflow:visible;enable-background:accumulate;font-family:Open Sans;-inkscape-font-specification:Open Sans Bold" xml:space="preserve"><tspan id="tspan6595" x="9.496" y="1031.362">A</tspan></text></g><g style="fill:#000;display:inline" id="b-18" transform="translate(3401,-23.00002)"><rect style="color:#000;fill:#000;fill-opacity:0;fill-rule:nonzero;stroke:none;stroke-width:2;marker:none;visibility:visible;display:inline;overflow:visible;enable-background:accumulate" id="rect6604" width="18" height="18" x="0" y="0" transform="translate(0,1016.3622)"/><text xml:space="preserve" style="font-size:16.80980301px;font-style:normal;font-variant:normal;font-weight:700;font-stretch:normal;text-indent:0;text-align:center;text-decoration:none;line-height:125%;letter-spacing:normal;word-spacing:normal;text-transform:none;direction:ltr;block-progression:tb;writing-mode:lr-tb;text-anchor:middle;color:#000;fill:#000;fill-opacity:1;fill-rule:nonzero;stroke:none;stroke-width:2;marker:none;visibility:visible;display:inline;overflow:visible;enable-background:accumulate;font-family:Open Sans;-inkscape-font-specification:Open Sans Bold" id="text6606" x="9.137" y="1031.362"><tspan id="tspan6608" x="9.137" y="1031.362">B</tspan></text></g><rect style="color:#000;fill:#000;fill-opacity:0;fill-rule:nonzero;stroke:none;stroke-width:2;marker:none;visibility:visible;display:inline;overflow:visible;enable-background:accumulate" id="rect3033" width="18" height="18" x="3421" y="993.362"/><text xml:space="preserve" style="font-size:16.80980301px;font-style:normal;font-variant:normal;font-weight:700;font-stretch:normal;text-indent:0;text-align:center;text-decoration:none;line-height:125%;letter-spacing:normal;word-spacing:normal;text-transform:none;direction:ltr;block-progression:tb;writing-mode:lr-tb;text-anchor:middle;color:#000;fill:#000;fill-opacity:1;fill-rule:nonzero;stroke:none;stroke-width:2;marker:none;visibility:visible;display:inline;overflow:visible;enable-background:accumulate;font-family:Open Sans;-inkscape-font-specification:Open Sans Bold" id="text3035" x="3428.448" y="1008.362"><tspan id="tspan3037" x="3428.448" y="1008.362">V</tspan></text><text id="text3041" x="3608.148" y="960.024" style="font-size:6.15145969px;font-style:normal;font-variant:normal;font-weight:700;font-stretch:normal;text-indent:0;text-align:center;text-decoration:none;line-height:125%;letter-spacing:normal;word-spacing:normal;text-transform:none;direction:ltr;block-progression:tb;writing-mode:lr-tb;text-anchor:middle;color:#000;fill:#000;fill-opacity:1;fill-rule:nonzero;stroke:none;stroke-width:2;marker:none;visibility:visible;display:inline;overflow:visible;enable-background:accumulate;font-family:Open Sans;-inkscape-font-specification:Open Sans Bold" transform="scale(0.95214897,1.0502558)" xml:space="preserve"><tspan id="tspan3043" x="3608.148" y="960.024">ia</tspan></text></g></svg>